<svg data-name="Layer 1" xmlns="http://www.w3.org/2000/svg" viewBox="0 0 371.05 355.98"><path d="M16 127.1c0-19.09 13.94-41.74 31-50.34l107.55-54.32c17-8.6 44.92-8.6 62 0l107.53 54.31c17 8.6 31 31.26 31 50.34v101.78c0 19.09-13.94 41.74-31 50.34L216.5 333.53c-17 8.6-44.92 8.6-62 0L46.98 279.22c-17-8.6-31-31.26-31-50.34z" fill="none" stroke="#fff" stroke-miterlimit="10" stroke-width="31.99"/><path d="M90.17 297.02V182.55s-1.8-19.53 13.14-29.9a259.78 259.78 0 0130.59-17.89s14.89-6.06 21.91 3.17l16.57 28.19s6.2 7.48 13.22 7.48c5.77 0 12.75-7.09 12.75-7.09l16.86-28.57c7-9.22 21.45-3.4 21.45-3.4a265.93 265.93 0 0131 18.13c15 10.34 13.16 29.88 13.16 29.88v114.47" fill="none" stroke="#fff" stroke-miterlimit="10" stroke-width="30.84"/></svg>